<?xml version="1.0" encoding="UTF-8"?><svg id="Double_Rotate_2" xmlns="http://www.w3.org/2000/svg" viewBox="0 0 128 128"><defs><style>.cls-1{stroke:#000;}.cls-1,.cls-2{fill:none;stroke-linecap:round;stroke-linejoin:round;stroke-width:4.5px;}.cls-2{stroke:#e5261f;}</style></defs><path class="cls-1" d="M115.75,64c0,28.58-23.17,51.75-51.75,51.75S12.25,92.58,12.25,64,35.42,12.25,64,12.25c23.03,0,39,15.19,49.26,35.83"/><polyline class="cls-1" points="97.75 48.25 115.75 48.25 115.75 30.44"/><path class="cls-2" d="M39.38,79.75c5.2,8.11,14.27,13.5,24.62,13.5,16.15,0,29.25-13.1,29.25-29.25s-13.1-29.25-29.25-29.25-29.25,13.1-29.25,29.25c0,.76.06,1.51.11,2.25"/><polyline class="cls-2" points="52.75 79.75 39.25 79.75 39.25 93.25"/></svg>